:SAMPLES-PER-SECOND 30
:FULLY-SPECIFIED
:DEGREES
392
root  -6.0842 39.0191 -1.27437 -1.98254 -16.2114 -5.07907
RightUpLeg  -6.21534 0.555877 7.93539
RightLeg  16.8433 -6.92056 -4.38478
RightFoot  -8.18363 0.00613402 0.348204
RightToes  1.74624e-010 -3.18055e-015 -2.98177e-016
Spine  6.4299 -1.90216 2.57001
Spine1  -1.15947 -2.57093 8.83112
HEad  -0.652967 9.03248 11.9196
LeftShoulder1  -3.88251e-019 9.70628e-020 -3.87848e-018
LeftArm  -18.5486 23.2475 2.35664
LeftForeArm  -39.776 -68.6564 27.7937
LeftHand  -3.06138 -9.06876 25.1369
RightShoulder  2.14522 5.2293 12.761
RightArm  -23.904 -21.08 -1.21076
RightForeArm  -52.0901 57.2877 -39.1455
RightHand  -1.41613 0.0184609 -29.298
LeftUpLeg  -7.59692 5.31933 11.7957
LeftLeg  25.5009 15.4765 15.6121
LeftFoot  -5.63566 0.322672 -5.18571
LeftToes  7.37594e-011 2.64622e-011 -6.25182e-011
393
root  -6.29733 38.9542 -1.2892 -1.97854 -16.9947 -5.03626
RightUpLeg  -6.58366 0.704125 8.34028
RightLeg  17.6613 -6.32573 -4.67358
RightFoot  -8.75272 0.0158885 0.191791
RightToes  1.74624e-010 -3.18055e-015 -2.98177e-016
Spine  6.48979 -1.50769 3.50789
Spine1  -1.22713 -1.95044 8.05682
HEad  -0.137113 8.84245 12.457
LeftShoulder1  -3.88251e-019 9.70628e-020 -3.87848e-018
LeftArm  -19.7947 20.4026 5.24533
LeftForeArm  -52.5341 -75.0643 44.1093
LeftHand  -3.57981 -10.6307 26.3884
RightShoulder  1.82343 4.73461 11.0173
RightArm  -25.0567 -19.5457 -2.46527
RightForeArm  -59.1447 63.0905 -52.815
RightHand  -2.0293 2.42689 -29.2028
LeftUpLeg  -9.17692 6.67127 10.8183
LeftLeg  29.7901 16.0512 18.6316
LeftFoot  -6.72571 0.201207 -3.9479
LeftToes  7.37594e-011 2.64622e-011 -6.25182e-011
394
root  -6.47369 38.9236 -1.29489 -1.96605 -17.9299 -4.80132
RightUpLeg  -6.90905 0.855186 8.53398
RightLeg  18.1921 -5.55278 -4.89239
RightFoot  -9.17033 0.0245563 0.00892696
RightToes  1.74624e-010 -3.18055e-015 -2.98177e-016
Spine  6.61624 -1.16941 4.30672
Spine1  -1.62805 -1.36221 7.04231
HEad  0.766304 8.7771 12.7263
LeftShoulder1  -3.88251e-019 9.70628e-020 -3.87848e-018
LeftArm  -20.849 18.1418 7.58279
LeftForeArm  -78.6112 -78.8696 72.2551
LeftHand  -4.13755 -11.6548 28.5181
RightShoulder  1.53913 4.33101 9.30297
RightArm  -25.9845 -18.077 -2.95736
RightForeArm  -68.8921 66.6552 -69.3216
RightHand  -2.6468 4.52915 -30.0454
LeftUpLeg  -10.3025 7.70572 9.24287
LeftLeg  32.7989 14.3537 19.7394
LeftFoot  -7.44586 0.140112 -3.25724
LeftToes  7.37594e-011 2.64622e-011 -6.25182e-011
395
root  -6.61352 38.8779 -1.28707 -2.04429 -18.4958 -4.66872
RightUpLeg  -7.11121 0.831407 8.70497
RightLeg  18.7789 -4.97001 -5.10378
RightFoot  -9.58827 0.0320944 -0.179643
RightToes  1.74624e-010 -3.18055e-015 -2.98177e-016
Spine  6.87744 -1.0772 5.12492
Spine1  -2.17706 -1.04616 6.23116
HEad  1.70571 8.83373 12.6337
LeftShoulder1  -3.88251e-019 9.70628e-020 -3.87848e-018
LeftArm  -21.7031 16.6527 9.32294
LeftForeArm  -113.346 -78.6307 109.629
LeftHand  -4.60865 -12.2307 30.5856
RightShoulder  1.32164 4.06149 7.84828
RightArm  -26.4641 -16.6576 -3.0016
RightForeArm  -81.8953 68.0503 -87.7963
RightHand  -3.37954 6.40771 -32.1933
LeftUpLeg  -11.0174 8.05918 7.3685
LeftLeg  34.5613 12.233 19.6494
LeftFoot  -7.93004 0.138019 -3.5419
LeftToes  7.37594e-011 2.64622e-011 -6.25182e-011
396
root  -6.73628 38.8536 -1.25516 -2.16636 -18.6213 -4.69316
RightUpLeg  -6.96942 0.727934 8.89779
RightLeg  19.0317 -4.79616 -5.12608
RightFoot  -9.87776 0.0379837 -0.359087
RightToes  1.74624e-010 -3.18055e-015 -2.98177e-016
Spine  7.03143 -1.12931 5.87951
Spine1  -2.62019 -0.958458 5.50954
HEad  2.35637 8.97383 12.168
LeftShoulder1  -3.88251e-019 9.70628e-020 -3.87848e-018
LeftArm  -22.4342 15.9529 10.3506
LeftForeArm  -135.652 -74.5885 135.722
LeftHand  -4.91365 -12.6396 31.776
RightShoulder  1.17886 3.86902 6.87804
RightArm  -26.5171 -15.1662 -3.01025
RightForeArm  -95.2952 67.3584 -105.792
RightHand  -4.16802 7.96976 -34.9439
LeftUpLeg  -11.1972 8.61665 5.27533
LeftLeg  35.0772 13.8283 21.0087
LeftFoot  -8.31276 0.141781 -3.92813
LeftToes  7.37594e-011 2.64622e-011 -6.25182e-011
397
root  -6.85267 38.8973 -1.2044 -2.25092 -18.5475 -4.8105
RightUpLeg  -6.38889 0.790689 9.11724
RightLeg  18.5043 -5.03341 -4.86331
RightFoot  -9.82928 0.0430992 -0.532135
RightToes  1.74624e-010 -3.18055e-015 -2.98177e-016
Spine  6.86248 -1.13398 6.35434
Spine1  -2.75661 -0.959803 4.86781
HEad  2.71555 9.06469 11.4903
LeftShoulder1  -3.88251e-019 9.70628e-020 -3.87848e-018
LeftArm  -23.1833 15.828 10.6735
LeftForeArm  -145.106 -69.2038 148.989
LeftHand  -5.0711 -13.0349 32.0528
RightShoulder  1.07263 3.65281 6.24411
RightArm  -26.4591 -13.752 -2.95816
RightForeArm  -104.75 65.0415 -120.53
RightHand  -4.88575 9.2274 -37.288
LeftUpLeg  -10.7673 9.89799 3.34575
LeftLeg  34.5904 20.4928 24.6131
LeftFoot  -8.83386 0.0750497 -2.6197
LeftToes  7.37594e-011 2.64622e-011 -6.25182e-011
398
root  -6.95691 38.9437 -1.15865 -2.31204 -18.279 -5.10925
RightUpLeg  -5.6996 0.970369 9.48508
RightLeg  17.8151 -5.58398 -4.58008
RightFoot  -9.67862 0.047977 -0.686451
RightToes  1.74624e-010 -3.18055e-015 -2.98177e-016
Spine  6.55247 -1.11841 6.48107
Spine1  -2.58963 -1.06986 4.93215
HEad  2.90089 9.08921 10.8887
LeftShoulder1  -3.88251e-019 9.70628e-020 -3.87848e-018
LeftArm  -23.7982 16.1129 10.5613
LeftForeArm  -149.109 -64.0499 155.956
LeftHand  -5.17387 -13.4074 32.0379
RightShoulder  0.982219 3.44687 5.71995
RightArm  -26.4476 -12.8278 -2.79373
RightForeArm  -109.909 61.9271 -131.226
RightHand  -5.65692 10.6563 -39.1799
LeftUpLeg  -10.181 10.9788 2.52395
LeftLeg  34.2224 27.5637 27.9852
LeftFoot  -9.20244 -0.00730111 -0.580886
LeftToes  7.37594e-011 2.64622e-011 -6.25182e-011
399
root  -7.05468 38.9083 -1.1415 -2.38566 -17.5597 -5.58399
RightUpLeg  -5.37746 0.993277 9.99443
RightLeg  17.9024 -6.39167 -4.60049
RightFoot  -9.85891 0.0505637 -0.789949
RightToes  1.74624e-010 -3.18055e-015 -2.98177e-016
Spine  6.47047 -1.25106 6.20115
Spine1  -2.40067 -1.3965 6.09209
HEad  2.82302 9.16204 10.5399
LeftShoulder1  -3.88251e-019 9.70628e-020 -3.87848e-018
LeftArm  -23.9127 16.7324 10.4155
LeftForeArm  -150.232 -60.0529 159.625
LeftHand  -5.38121 -13.8149 32.5596
RightShoulder  0.945469 3.39618 5.45212
RightArm  -26.4192 -12.4655 -2.84315
RightForeArm  -112.798 58.9443 -138.234
RightHand  -6.64704 12.3733 -41.3914
LeftUpLeg  -10.1416 10.9374 3.23982
LeftLeg  34.6452 28.435 28.7537
LeftFoot  -8.65663 0.0795905 -2.48876
LeftToes  7.37594e-011 2.64622e-011 -6.25182e-011
400
root  -7.13107 38.7755 -1.15877 -2.39663 -16.348 -6.06496
RightUpLeg  -5.77816 0.731507 10.4646
RightLeg  19.1321 -7.29921 -5.10569
RightFoot  -10.5426 0.0460906 -0.682518
RightToes  1.74624e-010 -3.18055e-015 -2.98177e-016
Spine  6.72641 -1.59673 5.85276
Spine1  -2.46277 -1.8673 7.6472
HEad  2.24096 9.20367 10.3789
LeftShoulder1  -3.88251e-019 9.70628e-020 -3.87848e-018
LeftArm  -23.525 17.4217 10.4067
LeftForeArm  -148.801 -58.1373 160.95
LeftHand  -5.83338 -14.4256 34.0701
RightShoulder  0.985037 3.49162 5.67868
RightArm  -26.517 -12.448 -3.35814
RightForeArm  -113.903 57.0452 -141.784
RightHand  -7.64426 13.6426 -44.165
LeftUpLeg  -10.9376 10.212 5.00451
LeftLeg  35.6905 22.0226 26.3831
LeftFoot  -7.76754 0.394821 -8.96244
LeftToes  7.37594e-011 2.64622e-011 -6.25182e-011
401
root  -7.16259 38.6227 -1.19769 -2.35296 -14.9571 -6.31048
RightUpLeg  -6.62985 0.33536 10.6696
RightLeg  20.8048 -8.12352 -5.93956
RightFoot  -11.3545 0.0376346 -0.294525
RightToes  1.74624e-010 -3.18055e-015 -2.98177e-016
Spine  7.14951 -2.02809 5.87033
Spine1  -2.74571 -2.235 8.42121
HEad  1.14247 8.93152 10.2256
LeftShoulder1  -3.88251e-019 9.70628e-020 -3.87848e-018
LeftArm  -23.0287 17.8257 10.3338
LeftForeArm  -145.476 -59.0171 160.097
LeftHand  -6.41003 -15.1084 36.0235
RightShoulder  1.0396 3.51235 6.15384
RightArm  -27.0781 -12.8737 -4.08496
RightForeArm  -112.672 56.9569 -141.848
RightHand  -8.22144 13.8826 -46.631
LeftUpLeg  -12.0486 9.65705 7.01051
LeftLeg  37.1076 12.523 21.5953
LeftFoot  -7.78522 0.625562 -13.9141
LeftToes  7.37594e-011 2.64622e-011 -6.25182e-011
402
root  -7.15866 38.5599 -1.23415 -2.44131 -13.6747 -6.12544
RightUpLeg  -7.13662 0.00793302 10.4377
RightLeg  21.7347 -8.8889 -6.63857
RightFoot  -11.7289 0.0320496 0.147852
RightToes  1.74624e-010 -3.18055e-015 -2.98177e-016
Spine  7.56121 -2.36126 6.03788
Spine1  -3.08107 -2.37085 8.10708
HEad  -0.0799243 8.32117 9.90138
LeftShoulder1  -3.88251e-019 9.70628e-020 -3.87848e-018
LeftArm  -22.582 17.9573 9.99432
LeftForeArm  -141.214 -62.7477 156.655
LeftHand  -6.74564 -15.452 37.18
RightShoulder  1.03659 3.35734 6.36275
RightArm  -28.0926 -13.918 -4.70487
RightForeArm  -109.379 58.8255 -138.202
RightHand  -8.24335 13.4423 -47.7009
LeftUpLeg  -12.6975 9.26891 8.59444
LeftLeg  38.4198 3.53711 15.6036
LeftFoot  -8.42988 0.549497 -13.949
LeftToes  7.37594e-011 2.64622e-011 -6.25182e-011
403
root  -7.12089 38.5888 -1.24358 -2.67443 -12.5233 -5.63679
RightUpLeg  -7.0879 -0.233465 9.84982
RightLeg  21.7676 -9.64508 -7.00437
RightFoot  -11.6529 0.0269983 0.496202
RightToes  1.74624e-010 -3.18055e-015 -2.98177e-016
Spine  7.85057 -2.57227 6.09579
Spine1  -3.40239 -2.37344 7.38768
HEad  -0.964327 7.71941 9.22002
LeftShoulder1  -3.88251e-019 9.70628e-020 -3.87848e-018
LeftArm  -22.005 18.1324 9.58637
LeftForeArm  -135.23 -68.5351 149.098
LeftHand  -6.66569 -15.3917 36.8664
RightShoulder  0.997572 3.2104 6.22474
RightArm  -29.1938 -15.1216 -5.2862
RightForeArm  -104.109 62.0896 -130.217
RightHand  -7.91194 12.8877 -47.2224
LeftUpLeg  -12.7099 8.48798 9.71174
LeftLeg  39.3479 -4.13357 9.36968
LeftFoot  -8.89465 0.441648 -12.6544
LeftToes  7.37594e-011 2.64622e-011 -6.25182e-011
404
root  -7.02208 38.6388 -1.21941 -2.77823 -11.5082 -5.14388
RightUpLeg  -6.98155 -0.483947 9.15148
RightLeg  21.5061 -10.2269 -7.18016
RightFoot  -11.4288 0.0195002 0.86015
RightToes  1.74624e-010 -3.18055e-015 -2.98177e-016
Spine  7.85036 -2.74098 6.31266
Spine1  -3.68282 -2.35426 6.62993
HEad  -1.40526 7.33841 8.07457
LeftShoulder1  -3.88251e-019 9.70628e-020 -3.87848e-018
LeftArm  -21.33 18.4544 9.47236
LeftForeArm  -121.649 -74.8391 132.66
LeftHand  -6.35707 -15.2257 35.5492
RightShoulder  0.981478 3.23385 6.03598
RightArm  -30.1586 -15.8493 -5.89269
RightForeArm  -95.2291 65.5848 -116.69
RightHand  -7.35306 12.172 -45.8297
LeftUpLeg  -12.415 7.12383 10.5088
LeftLeg  39.6593 -9.41879 4.62457
LeftFoot  -9.53172 0.388355 -13.3357
LeftToes  7.37594e-011 2.64622e-011 -6.25182e-011
405
root  -6.8614 38.6999 -1.17695 -2.59523 -10.7988 -4.74718
RightUpLeg  -7.0529 -0.683052 8.48015
RightLeg  21.0544 -10.5572 -7.21055
RightFoot  -11.0637 0.0075902 1.27168
RightToes  1.74624e-010 -3.18055e-015 -2.98177e-016
Spine  7.47796 -2.84298 6.91093
Spine1  -3.86314 -2.26572 5.48226
HEad  -1.60726 7.05212 6.60789
LeftShoulder1  -3.88251e-019 9.70628e-020 -3.87848e-018
LeftArm  -20.9136 18.8168 9.63724
LeftForeArm  -87.2257 -78.7657 96.2321
LeftHand  -6.06929 -15.2023 34.0858
RightShoulder  0.979863 3.32157 5.88617
RightArm  -30.9749 -16.2019 -6.24062
RightForeArm  -81.292 67.6895 -97.1316
RightHand  -6.63843 11.1331 -44.1529
LeftUpLeg  -11.7894 5.49196 10.9193
LeftLeg  38.2852 -10.2091 3.73444
LeftFoot  -11.0965 0.225866 -14.4739
LeftToes  7.37594e-011 2.64622e-011 -6.25182e-011
406
root  -6.67306 38.8034 -1.12881 -2.29487 -10.5174 -4.39243
RightUpLeg  -6.98425 -0.722893 7.83433
RightLeg  20.0793 -10.7451 -6.92998
RightFoot  -10.4167 -0.00804645 1.52735
RightToes  1.74624e-010 -3.18055e-015 -2.98177e-016
Spine  6.92824 -2.7635 7.61579
Spine1  -3.96625 -2.02467 3.90509
HEad  -1.76437 6.80141 5.0991
LeftShoulder1  -3.88251e-019 9.70628e-020 -3.87848e-018
LeftArm  -20.9728 19.3279 9.74032
LeftForeArm  -44.1666 -76.0597 52.5347
LeftHand  -5.92911 -15.4413 32.98
RightShoulder  0.960672 3.32829 5.69558
RightArm  -31.6574 -16.5456 -6.20959
RightForeArm  -65.0577 67.0203 -74.6711
RightHand  -5.89921 9.90585 -42.5345
LeftUpLeg  -10.4792 3.76768 10.8892
LeftLeg  34.5404 -5.43641 6.96998
LeftFoot  -12.558 0.0295779 -13.0647
LeftToes  7.37594e-011 2.64622e-011 -6.25182e-011
